%TF.GenerationSoftware,Altium Limited,Altium Designer,26.2.0 (7)*%
G04 Layer_Physical_Order=1*
G04 Layer_Color=255*
%FSLAX45Y45*%
%MOMM*%
%TF.SameCoordinates,0C0EBD34-0431-4DBA-9B1B-B9C3D3D15256*%
%TF.FilePolarity,Positive*%
%TF.FileFunction,Copper,L1,Top,Signal*%
%TF.Part,Single*%
G01*
G75*
%TA.AperFunction,SMDPad,CuDef*%
%ADD10R,1.70000X0.60000*%
%ADD11R,2.70000X1.00000*%
%ADD12R,1.40000X0.95000*%
%ADD13R,1.00000X0.66000*%
%TA.AperFunction,Conductor*%
%ADD14C,0.50000*%
%TA.AperFunction,TestPad*%
%ADD15C,0.70000*%
D10*
X1897500Y537500D02*
D03*
Y412500D02*
D03*
X552500D02*
D03*
Y537500D02*
D03*
D11*
X2217500Y722500D02*
D03*
Y227500D02*
D03*
X232500D02*
D03*
Y722500D02*
D03*
D12*
X875000Y382500D02*
D03*
Y567500D02*
D03*
X1575000Y382500D02*
D03*
Y567500D02*
D03*
D13*
X1355000Y570000D02*
D03*
Y380000D02*
D03*
X1095000D02*
D03*
Y475000D02*
D03*
Y570000D02*
D03*
D14*
X612500Y412812D02*
X691898D01*
X552500Y412500D02*
X612500Y412812D01*
X875000Y300000D02*
Y382500D01*
X1000000Y475000D02*
X1095000D01*
X1575000Y300000D02*
Y382500D01*
X1957500Y538355D02*
X2043064D01*
X1897500Y537500D02*
X1957500Y538355D01*
X1755074Y412500D02*
X1897500D01*
X1725000Y442574D02*
Y525000D01*
Y442574D02*
X1755074Y412500D01*
X552500Y537500D02*
X687500D01*
X725000Y575000D01*
X867500D01*
X875000Y567500D01*
X1575000D02*
X1682500D01*
X1725000Y525000D01*
X1572500Y570000D02*
X1575000Y567500D01*
X1355000Y570000D02*
X1572500D01*
X1095000Y380000D02*
X1100000Y375000D01*
X1207426D01*
X1225000Y392574D01*
Y557426D01*
X1207426Y575000D02*
X1225000Y557426D01*
X1100000Y575000D02*
X1207426D01*
X1095000Y570000D02*
X1100000Y575000D01*
X875000Y567500D02*
X877500Y570000D01*
X1095000D01*
D15*
X2043064Y538355D02*
D03*
X1575000Y300000D02*
D03*
X1000000Y475000D02*
D03*
X875000Y300000D02*
D03*
X691898Y412812D02*
D03*
%TF.MD5,8e9ce31cffa408c6632a31aaaa56a9c1*%
M02*
